<svg width="132" height="125" viewBox="0 0 132 125" fill="none" xmlns="http://www.w3.org/2000/svg">
<path d="M88.6203 69.597L98.3639 77.4847L118.315 101.612L102.54 113.211L86.3004 124.811L69.5971 98.3638L65.4212 87.2283L61.2455 98.3638L45.0062 124.811L28.7668 113.211L12.5275 101.612L32.9426 77.4847L42.6862 69.597L30.1588 69.1331L0 62.1734L5.56784 43.1502L11.5995 24.127L40.8303 35.7265L51.0379 41.7582L47.7901 31.0867L45.4701 0H85.3725L83.0525 31.0867L80.2687 41.7582L90.4762 35.7265L119.243 24.127L125.275 43.1502L131.307 62.1734L100.684 69.1331L88.6203 69.597Z" fill="#5A0303"/>
</svg>
